
<svg viewBox="0 0 124 28" xmlns="http://www.w3.org/2000/svg">
    <defs>
        <linearGradient x1="50.035%" y1="100.014%" x2="50.035%" y2=".036%" id="bcf66dfrga">
            <stop stop-color="#66C1FF" offset="1%"/>
            <stop stop-color="#28CEAE" offset="100%"/>
            <stop stop-color="#31B99B" offset="100%"/>
        </linearGradient>
        <linearGradient x1="50.053%" y1="99.966%" x2="50.053%" y2=".023%" id="dftdtqyo4b">
            <stop stop-color="#66C1FF" offset="1%"/>
            <stop stop-color="#28CEAE" offset="100%"/>
            <stop stop-color="#31B99B" offset="100%"/>
        </linearGradient>
    </defs>
    <g fill-rule="nonzero" fill="none">
        <path fill="#000" d="M29.712 6.292v.001"/>
        <path d="M0 24.854V2.709C0 1.63.875.755 1.954.755h12.8a1.602 1.602 0 1 1 0 3.203H3.949v8.235h8.7a1.582 1.582 0 0 1 1.583 1.582c0 .875-.709 1.584-1.584 1.584h-8.7v9.495a1.975 1.975 0 0 1-3.949 0zM39.187 27.281c-1.565 0-2.857-.26-3.875-.782-1.018-.522-1.775-1.21-2.272-2.061a5.49 5.49 0 0 1-.745-2.812c0-1.789.694-3.205 2.082-4.248 1.388-1.042 3.377-1.564 5.968-1.565h4.842v-.342c0-1.44-.39-2.521-1.172-3.242-.782-.72-1.795-1.08-3.037-1.08a5.048 5.048 0 0 0-2.853.797c-.492.32-.888.77-1.143 1.3-.3.644-.941 1.058-1.65 1.067h-.099c-1.464 0-2.378-1.616-1.596-2.854.13-.206.273-.404.427-.593a7.605 7.605 0 0 1 2.98-2.194c1.258-.52 2.608-.78 3.968-.763 2.584 0 4.583.676 6 2.03 1.415 1.354 2.122 3.198 2.121 5.532v9.56a1.804 1.804 0 0 1-3.599.19l-.163-1.554a7.019 7.019 0 0 1-2.272 2.575c-.994.693-2.298 1.04-3.912 1.04zm.786-3.204c1.069 0 1.969-.255 2.7-.764a5.152 5.152 0 0 0 1.715-2.03c.42-.878.679-1.825.765-2.794H40.75c-1.564 0-2.675.273-3.33.82a2.551 2.551 0 0 0-.989 2.049c0 .845.317 1.509.95 1.993.635.484 1.498.726 2.59.726zM52.423 24.879V10.186a1.83 1.83 0 0 1 3.654-.165l.146 1.578a6.422 6.422 0 0 1 2.515-2.706c1.105-.658 2.377-.987 3.818-.987 2.237 0 3.995.694 5.274 2.082 1.28 1.388 1.92 3.462 1.92 6.222v8.662a1.956 1.956 0 1 1-3.913 0v-8.246c0-3.576-1.465-5.364-4.395-5.364-1.466 0-2.677.521-3.633 1.564-.955 1.043-1.434 2.533-1.435 4.47v7.583c0 1.08-.875 1.956-1.955 1.956h-.038a1.956 1.956 0 0 1-1.958-1.956zM73.006 24.854V1.984A1.975 1.975 0 0 1 74.982.01c1.091 0 1.975.884 1.975 1.975v14.008l6.568-7.087a1.724 1.724 0 1 1 2.527 2.346l-5.135 5.48 6.264 7.014a1.85 1.85 0 0 1-1.38 3.083 1.852 1.852 0 0 1-1.414-.658l-7.418-8.805v7.488c0 1.09-.885 1.975-1.975 1.975a1.975 1.975 0 0 1-1.988-1.975zM105.82 25.002V10.186a1.83 1.83 0 0 1 3.654-.165l.139 1.578a6.422 6.422 0 0 1 2.522-2.706c1.105-.658 2.377-.987 3.818-.987 2.237 0 3.995.694 5.274 2.082 1.28 1.388 1.92 3.462 1.92 6.222v8.786c0 1.011-.82 1.832-1.832 1.832h-.249a1.832 1.832 0 0 1-1.832-1.832v-8.37c0-3.576-1.465-5.364-4.395-5.364-1.466 0-2.677.521-3.633 1.564-.955 1.043-1.434 2.533-1.435 4.47v7.706c0 1.012-.82 1.832-1.83 1.833h-.288a1.832 1.832 0 0 1-1.833-1.833z" fill="currentColor"/>
        <path d="M100.37 6.197a2.049 2.049 0 0 1-2.113-2.112 2.114 2.114 0 1 1 4.226 0 2.049 2.049 0 0 1-2.112 2.112z" fill="#F66"/>
        <path d="M92.79 13.324h-.043c-.79 0-1.346-.306-1.666-.92-.191-.383-.288-.965-.289-1.745V2.264c0-.186.007-.361.019-.525a1.974 1.974 0 0 1 3.847-.341c.034.286.051.574.05.863v8.397c0 .78-.096 1.362-.289 1.745-.313.602-.855.908-1.625.919l-.004.002zm0 0h-.047c-.77.011-1.311.318-1.626.92-.191.382-.287.964-.287 1.744l-.035 2.759v5.83c0 .185.007.36.018.524a1.974 1.974 0 0 0 3.845.337c.034-.286.051-.574.05-.862v-6.01l.037-2.581c0-.78-.095-1.362-.287-1.745-.32-.61-.874-.916-1.664-.916h-.004z" fill="url(#bcf66dfrga)"/>
        <path d="M102.057 15.197c.192.384.287.966.287 1.746l-.037 2.581v5.719a1.974 1.974 0 0 1-3.911-.389v-5.163l.037-2.748c0-.78.096-1.362.289-1.746.314-.6.855-.907 1.625-.918h.047c.79.001 1.345.307 1.663.918zm-1.665-.92c.768-.01 1.31-.317 1.625-.918.191-.383.287-.454.287-1.233v-1.11c0-.78-.096-1.361-.287-1.745a1.78 1.78 0 0 0-.11-.18 1.97 1.97 0 0 0-1.328-.729c-.072 0-.139-.01-.22-.01a1.974 1.974 0 0 0-1.734 1.046c-.155.38-.232.92-.232 1.618v1.11c0 .78.096.85.287 1.233.32.612.875.918 1.666.92h.047l-.001-.001z" fill="url(#dftdtqyo4b)"/>
        <path d="M30.218 9.142c-.899-.603-2.043-.905-3.43-.906a6.54 6.54 0 0 0-2.815.618 6.058 6.058 0 0 0-2.16 1.665l-.153.178-.064-.665a1.854 1.854 0 0 0-3.7.178v14.644a1.975 1.975 0 1 0 3.949 0v-6.887l-.02-1.804c0-1.324.378-2.385 1.136-3.183a3.778 3.778 0 0 1 2.855-1.195 4.32 4.32 0 0 1 2.128.577c.604.347 1.113.52 1.526.52a1.83 1.83 0 0 0 1.342-.538c.382-.375.591-.891.58-1.426.002-.67-.389-1.261-1.174-1.776z" fill="currentColor"/>
    </g>
</svg>
